<?xml version="1.0" encoding="UTF-8"?>
<svg viewBox="0 0 637 636" version="1.1" xmlns="http://www.w3.org/2000/svg" xmlns:xlink="http://www.w3.org/1999/xlink">
    <title>Group 15</title>
    <g id="opzet-01" stroke="none" stroke-width="1" fill="none" fill-rule="evenodd" stroke-linecap="square">
        <g id="supervillain" transform="translate(-387.000000, -2434.000000)" stroke="#FAF8E1" stroke-width="0.5">
            <g id="Group-22" transform="translate(303.000000, 2434.454211)">
                <g id="Group-15" transform="translate(84.974177, 0.000000)">
                    <line x1="258.070772" y1="5.59258726" x2="376.980874" y2="628.498991" id="Line-2"></line>
                    <line x1="491.196201" y1="51.5457891" x2="144.025823" y2="582.229055" id="Line-2" transform="translate(317.611012, 316.887422) rotate(15.000000) translate(-317.611012, -316.887422) "></line>
                    <line x1="491.196201" y1="51.5457891" x2="144.025823" y2="582.229055" id="Line-2" transform="translate(317.611012, 316.887422) rotate(75.000000) translate(-317.611012, -316.887422) "></line>
                    <line x1="174.525823" y1="34.0457891" x2="460.525823" y2="600.045789" id="Line-2" transform="translate(317.525823, 317.045789) rotate(45.000000) translate(-317.525823, -317.045789) "></line>
                    <line x1="491.196201" y1="51.5457891" x2="144.025823" y2="582.229055" id="Line-2" transform="translate(317.611012, 316.887422) rotate(45.000000) translate(-317.611012, -316.887422) "></line>
                    <line x1="491.196201" y1="51.5457891" x2="144.025823" y2="582.229055" id="Line-2" transform="translate(317.611012, 316.887422) rotate(105.000000) translate(-317.611012, -316.887422) "></line>
                    <line x1="313.057309" y1="-2.27373675e-13" x2="321.994337" y2="634.091578" id="Line-2"></line>
                    <line x1="491.222407" y1="51.562988" x2="144.052029" y2="582.246253" id="Line-2" transform="translate(317.637218, 316.904621) rotate(25.000000) translate(-317.637218, -316.904621) "></line>
                    <line x1="491.222407" y1="51.562988" x2="144.052029" y2="582.246253" id="Line-2" transform="translate(317.637218, 316.904621) rotate(85.000000) translate(-317.637218, -316.904621) "></line>
                    <line x1="174.525823" y1="34.0457891" x2="460.525823" y2="600.045789" id="Line-2" transform="translate(317.525823, 317.045789) rotate(55.000000) translate(-317.525823, -317.045789) "></line>
                    <line x1="491.222407" y1="51.562988" x2="144.052029" y2="582.246253" id="Line-2" transform="translate(317.637218, 316.904621) rotate(55.000000) translate(-317.637218, -316.904621) "></line>
                    <line x1="491.222407" y1="51.562988" x2="144.052029" y2="582.246253" id="Line-2" transform="translate(317.637218, 316.904621) rotate(115.000000) translate(-317.637218, -316.904621) "></line>
                    <line x1="199.735056" y1="22.6594183" x2="435.31659" y2="611.43216" id="Line-2"></line>
                    <line x1="491.170379" y1="51.5344123" x2="144" y2="582.217678" id="Line-2" transform="translate(317.585189, 316.876045) rotate(6.000000) translate(-317.585189, -316.876045) "></line>
                    <line x1="491.170379" y1="51.5344123" x2="144" y2="582.217678" id="Line-2" transform="translate(317.585189, 316.876045) rotate(66.000000) translate(-317.585189, -316.876045) "></line>
                    <line x1="174.525823" y1="34.0457891" x2="460.525823" y2="600.045789" id="Line-2" transform="translate(317.525823, 317.045789) rotate(36.000000) translate(-317.525823, -317.045789) "></line>
                    <line x1="491.170379" y1="51.5344123" x2="144" y2="582.217678" id="Line-2" transform="translate(317.585189, 316.876045) rotate(36.000000) translate(-317.585189, -316.876045) "></line>
                    <line x1="491.170379" y1="51.5344123" x2="144" y2="582.217678" id="Line-2" transform="translate(317.585189, 316.876045) rotate(96.000000) translate(-317.585189, -316.876045) "></line>
                </g>
            </g>
        </g>
    </g>
</svg>