<svg fill="#FAF8E1" xmlns="http://www.w3.org/2000/svg" xmlns:xlink="http://www.w3.org/1999/xlink" viewBox="0 0 134 1038">
  <g transform="rotate(90 1420.874 1441.539)">
    <path d="M79.12 2857.239c13.6 0 26.4 1.2 31.8 1.2 1.6 0 2.4-1.2 2.4-2.8 0-1.4-.8-2.6-2-5.2-12.6-24-31.2-85-31.2-112.4 0-4-2.2-5.6-5.2-5.6-3.36 0-17.459 1.172-32.458 1.2h-.542c-4.621 0-10.55-.166-16.614-.385l-1.214-.044-1.823-.068c-10.533-.403-20.885-.903-24.95-.903-2.6 0-3.8 1.8-3.8 3.4 0 1.8 1.2 3.6 3.8 3.6 2 0 5-.8 7.4-.8 5 0 10.4 2 10.4 12.8 0 27.6-35.4 81-35.4 103 0 3.2 1.6 4.2 4.6 4.2 4.2 0 13-1.4 20.8-1.4 2.347 0 5.635.188 8.996.427l.918.066.918.068c5.192.39 10.182.839 11.769.839 2.2 0 3.2-1.8 3.2-4 0-6.2-9.6-16.6-9.6-28.6 0-5 2.2-7 14.6-7 14.6 0 16.4 1.4 16.4 19.6 0 9.4-2.6 14-6.4 14-2.6 0-4.4-.6-5.8-.6-2 0-3.2 1.4-3.2 3.2 0 2 .8 3.4 3.2 3.4 2.4 0 27.8-1.2 39-1.2zm-44.6-44.4c-13.6 0-17-2-17-27.6 0-20.4 4.6-37.2 11.8-37.2 4.2 0 6 4.2 10.8 20.6 5 15.6 8 30 8 37.4 0 4.2-1.4 6.8-13.6 6.8zm107.995 45.346l1.205-.016c1.21-.016 2.425-.032 3.637-.046l1.21-.013c3.825-.042 7.573-.071 10.891-.071 6.44 0 13.68.031 21.025.077l2.364.014 1.578.01c17.089.116 34.082.288 42.3.299h.733c2 0 4.8-2 4.8-4.8 0-6.2-1.2-16.8-1.2-31.6 0-1.185.007-2.374.02-3.563l.015-1.189.008-.593.02-1.186.024-1.183c.276-12.986 1.113-25.175 1.113-29.686 0-2.6-1.2-4.2-3.8-4.2-28.2 0-24 71.8-39.2 71.8-5 0-6.4-3.4-6.8-12.6-.8-20.4-1.4-56 .2-80.6.054-.936.118-1.87.198-2.796l.056-.615c.873-9.11 3.532-17.189 14.746-17.189 4.6 0 8.2 1 10.6 1 2.4 0 3.2-2.2 3.2-3.4 0-2.2-1.4-3.6-3.2-3.6-16.6 0-32.2.4-50.2.4-12.8 0-24-.4-35.4-.4-1.8 0-3 1.4-3 3.4 0 1.4.8 3.2 3 3.2 1.2 0 3-.6 5-.6 5 0 5.4 6.4 5.8 12.8 1.6 27.2.8 65.8 0 88.4-.4 9.4-1.4 12.8-6.4 12.8-.8 0-3.2-.6-4.4-.6-1.8 0-3 1.4-3 3.2 0 1.6.8 3.4 3 3.4h.536c3.766-.013 11.303-.145 19.32-.254zm127.344-.016l1.21-.016 1.82-.023 1.212-.014a1048.6 1048.6 0 0111.496-.077c6.21 0 13.163.03 20.238.072l1.574.01c18.119.113 36.73.307 45.454.318h.734c2 0 4.8-2 4.8-4.8 0-6.2-1.2-16.8-1.2-31.6v-.593l.005-1.187c.084-15.05 1.195-30.425 1.195-35.62 0-2.6-1.2-4.2-3.8-4.2-28.2 0-24 71.8-39.2 71.8-5 0-6.4-3.4-6.8-12.6-.8-20.4-1.4-56 .2-80.6.048-.832.103-1.663.172-2.487l.053-.617c.843-9.234 3.435-17.496 14.775-17.496 4.6 0 8.2 1 10.6 1 2.4 0 3.2-2.2 3.2-3.4 0-2.2-1.4-3.6-3.2-3.6-16.6 0-32.2.4-50.2.4-12.8 0-24-.4-35.4-.4-1.8 0-3 1.4-3 3.4 0 1.4.8 3.2 3 3.2 1.2 0 3-.6 5-.6 5 0 5.4 6.4 5.8 12.8 1.6 27.2.8 65.8 0 88.4-.4 9.4-1.4 12.8-6.4 12.8-.8 0-3.2-.6-4.4-.6-1.8 0-3 1.4-3 3.2 0 1.6.8 3.4 3 3.4h.536c3.954-.014 12.065-.159 20.526-.27zm218.415 3.27c43 0 53.8-23.8 53.8-58.2 0-3-1.6-4.2-3.8-4.2-2.4 0-3.8 1.6-3.8 3.8 0 2 1.2 5.4 1.2 9.2 0 10-10 15-26.4 15-31 0-40.2-19-40.2-52.2 0-27.6 4.2-39.6 12.4-39.6 7.2 0 8.2 7.6 11.4 18.8 6.4 26.4 16.2 38.2 41.2 38.2 5.8-.2 6.8-3.2 6.8-7.4 0-6-.8-15-.6-22.8.04-2.16.136-4.536.264-6.978l.049-.918c.025-.46.052-.923.08-1.385l.084-1.39.029-.462.06-.925c.531-8.15 1.234-15.887 1.234-17.742 0-2.6-1.6-3.6-3.4-3.6-2 0-3.2 1-3.2 3.6 0 .6.6 2.8.6 5 0 3.2-2.4 4.4-5.6 4.4-12.2 0-21.8-12.2-48.6-12.2-38 0-59.2 26.6-59.2 67.4 0 54 31.4 64.6 65.6 64.6zm145.965-3.76l.996-.035.499-.017.997-.033c5.977-.2 11.849-.355 15.881-.355 13.6 0 26.4 1.2 31.8 1.2 1.6 0 2.4-1.2 2.4-2.8 0-1.4-.8-2.6-2-5.2-12.6-24-31.2-85-31.2-112.4 0-4-2.2-5.6-5.2-5.6-3.157 0-15.799 1.035-29.759 1.183l-1.076.01c-.54.003-1.08.005-1.623.006l-.542.001c-4.929 0-11.346-.19-17.828-.429l-1.215-.045c-10.74-.406-21.415-.926-25.557-.926-2.6 0-3.8 1.8-3.8 3.4 0 1.8 1.2 3.6 3.8 3.6 2 0 5-.8 7.4-.8 5 0 10.4 2 10.4 12.8 0 13.524-8.5 33.243-17.17 52.426l-1.061 2.346c-8.67 19.129-17.169 37.448-17.169 48.228 0 3.2 1.6 4.2 4.6 4.2 4.2 0 13-1.4 20.8-1.4 2.56 0 6.24.224 9.914.493l.917.068c5.192.39 10.182.839 11.769.839 2.2 0 3.2-1.8 3.2-4 0-6.2-9.6-16.6-9.6-28.6 0-5 2.2-7 14.6-7 14.6 0 16.4 1.4 16.4 19.6 0 9.4-2.6 14-6.4 14-2.6 0-4.4-.6-5.8-.6-2 0-3.2 1.4-3.2 3.2 0 2 .8 3.4 3.2 3.4 1.416 0 10.838-.418 20.627-.76zm-26.227-44.84c-13.6 0-17-2-17-27.6 0-20.4 4.6-37.2 11.8-37.2 3.16 0 4.962 2.379 7.706 10.546l.228.685c.843 2.557 1.777 5.65 2.866 9.369 5 15.6 8 30 8 37.4 0 4.2-1.4 6.8-13.6 6.8zm109.547 45.322l1.269-.016 1.906-.023 1.27-.014c3.806-.041 7.558-.069 10.946-.069 13.028 0 31.727.378 39.005.4h.595c2 0 3-1.8 3-3.4 0-2-1-3.6-3-3.6-3 0-8 1-10 1-5.8 0-7.6-3.4-7.6-12.6 0-9 1.4-10.4 25.2-15.8 25.2-5.8 43.8-12.6 43.8-52.4 0-27.8-15.6-40-41.6-40-11.8 0-37.6 1.2-50.8 1.2-13 0-24.2-.4-35.8-.4-1.8 0-3 1.4-3 3.4 0 1.8.8 3.2 3 3.2 1.4 0 3.4-.6 5.4-.6 4.445 0 5.255 4.899 5.66 10.482l.043.601.04.605.057.912a711.4 711.4 0 01.998 39.434l-.008 2.23c-.082 17.453-.62 34.403-.99 46.936-.4 9.4-1.4 12.8-6.4 12.8-.8 0-3.4-.6-4.8-.6-1.8 0-3 1.4-3 3.2 0 2 .8 3.4 3 3.4 4.047 0 12.733-.16 21.81-.278zm43.391-35.322c-4 0-5.8-1.6-5.8-9.6 0-66.2 1.6-75 11.6-75 8.6 0 11 9 11 32.2 0 34.8-5.2 52.4-16.8 52.4zm139.139 38.6c29.2 0 48.8-11.6 48.8-40.2 0-27.4-17.6-40-47.6-52.2-19.6-7.8-24.4-15.2-24.4-22.6 0-6.8 4.6-10.8 11.6-10.8 10.2 0 17.85 11.15 25.45 22.3l.912 1.337c7.296 10.687 14.638 20.963 24.238 20.963 2.8 0 4.4-1.8 4.4-4.6 0-2.16-.216-5.832-.389-9.677l-.048-1.102c-.093-2.209-.163-4.432-.163-6.421 0-9.4.8-17.8.8-25.6 0-3.2-.8-4.2-3.2-4.2-1.6 0-3 1-3 3.2 0 1.6.6 2.6.6 4.6 0 3-2.8 4.6-6.6 4.6-8.2 0-21.8-11.6-41.8-11.6-35.4 0-49.6 18.2-49.6 41.4 0 23.6 16 37.8 42.4 47.8 21.2 8 28.4 15.8 28.4 25.2 0 7.8-5.2 11-11.2 11-21.6 0-37.4-49.2-56.2-49.2-3.8 0-5 2.2-5 5.2 0 4.2 1.4 10.6 1.4 19.6 0 3.055-.185 6.69-.42 10.303l-.073 1.083c-.403 5.942-.907 11.654-.907 14.414 0 2 1.6 3 3.4 3 2 0 3.2-1 3.2-3 0-1.6-.4-3.4-.4-4.6 0-3.8 2.6-6.4 7.8-6.4 10.6 0 22 16.2 47.6 16.2zm88.738-1.8c18.6 0 28.2-9.4 28.2-25 0-18.4-11.2-29.8-28.2-29.8s-28 11-28 29.8c0 15.6 8 25 28 25z" id="a"/>
  </g>
</svg>
