<?xml version="1.0" encoding="UTF-8"?>
<svg viewBox="0 0 436 434" version="1.1" xmlns="http://www.w3.org/2000/svg" xmlns:xlink="http://www.w3.org/1999/xlink">
    <title>Group 10</title>
    <g id="opzet-01" stroke="none" stroke-width="1" fill="none" fill-rule="evenodd" stroke-linecap="square">
        <g id="supervillain" transform="translate(-488.000000, -2535.000000)" stroke="#FAF8E1" stroke-width="0.25">
            <g id="Group-22" transform="translate(303.000000, 2434.454211)">
                <g id="Group-10" transform="translate(185.344438, 100.796951)">
                    <line x1="119.655562" y1="22.7488384" x2="315.454676" y2="410.239393" id="Line-2"></line>
                    <line x1="119.655562" y1="22.7488384" x2="315.454676" y2="410.239393" id="Line-2" transform="translate(217.555119, 216.494115) rotate(60.000000) translate(-217.555119, -216.494115) "></line>
                    <line x1="433.988231" y1="232.274876" x2="1" y2="200.535085" id="Line-2"></line>
                    <line x1="233.425015" y1="2.84217094e-14" x2="201.685224" y2="432.988231" id="Line-2"></line>
                    <line x1="412.979471" y1="121.99079" x2="22.1307676" y2="310.997441" id="Line-2"></line>
                    <line x1="336.332669" y1="34.7488384" x2="98.6555622" y2="398.061122" id="Line-2" transform="translate(217.494115, 216.404980) rotate(90.000000) translate(-217.494115, -216.404980) "></line>
                    <line x1="154.737729" y1="8.75784092" x2="280.275185" y2="424.361702" id="Line-2"></line>
                    <line x1="366.083844" y1="58.2994929" x2="68.9290704" y2="374.82005" id="Line-2"></line>
                    <line x1="336.300412" y1="34.8052555" x2="98.623305" y2="398.117539" id="Line-2" transform="translate(217.461858, 216.461397) rotate(70.000000) translate(-217.461858, -216.461397) "></line>
                    <line x1="119.6069" y1="22.8144945" x2="315.406014" y2="410.305049" id="Line-2" transform="translate(217.506457, 216.559772) rotate(40.000000) translate(-217.506457, -216.559772) "></line>
                    <line x1="426.372204" y1="157.427247" x2="8.64071034" y2="275.692296" id="Line-2"></line>
                    <line x1="336.300412" y1="34.8052555" x2="98.623305" y2="398.117539" id="Line-2" transform="translate(217.461858, 216.461397) rotate(100.000000) translate(-217.461858, -216.461397) "></line>
                    <line x1="87.5328127" y1="42.62682" x2="347.644327" y2="390.230363" id="Line-2"></line>
                    <line x1="303.07744" y1="16.8961161" x2="132.099699" y2="415.961066" id="Line-2"></line>
                    <line x1="433.059001" y1="190.619393" x2="1.96974566" y2="242.0808" id="Line-2"></line>
                    <line x1="119.689013" y1="22.6833142" x2="315.488127" y2="410.173868" id="Line-2" transform="translate(217.588570, 216.428591) rotate(21.000000) translate(-217.588570, -216.428591) "></line>
                    <line x1="391.390341" y1="86.3728343" x2="43.7867984" y2="346.484348" id="Line-2"></line>
                    <line x1="417.046848" y1="301.838967" x2="17.9818982" y2="130.861226" id="Line-2"></line>
                </g>
            </g>
        </g>
    </g>
</svg>