<?xml version="1.0" encoding="UTF-8"?>
<svg viewBox="0 0 17 99" version="1.1" xmlns="http://www.w3.org/2000/svg" xmlns:xlink="http://www.w3.org/1999/xlink">
    <title>Group 16</title>
    <defs>
        <polygon id="path-1" points="0.144577095 0.216 7.78517224 0.216 7.78517224 10.2216674 0.144577095 10.2216674"></polygon>
    </defs>
    <g id="opzet-01" stroke="none" stroke-width="1" fill="none" fill-rule="evenodd">
        <g id="supervillain" transform="translate(-303.000000, -2702.000000)">
            <g id="Group-22" transform="translate(303.000000, 2434.454211)">
                <g id="Group-16" transform="translate(8.500000, 317.045789) rotate(-90.000000) translate(-8.500000, -317.045789) translate(-41.000000, 308.545789)">
                    <polygon id="Fill-1" fill="#FAF8E1" points="-3.05533376e-13 6.173 2.845 17 6.247 16.107 5.863 14.646 4.236 15.072 2.158 7.168 3.786 6.741 3.402 5.279"></polygon>
                    <path d="M17.1592,3.3076 C17.2432,3.5046 17.1832,3.7576 17.0972,3.9596 C16.8012,4.6016 16.3592,5.1416 15.7782,5.5956 C15.3172,5.9546 14.8122,6.1656 14.2722,6.2706 C14.3732,6.7916 14.4752,7.3286 14.5792,7.8646 C14.6692,8.2456 14.7312,8.6476 14.8052,9.0326 C14.9182,9.6226 15.0482,10.2116 15.1452,10.8056 C15.1772,10.9696 15.2722,11.0516 15.4472,11.0756 C15.6262,11.1126 15.8192,11.1466 15.9802,11.2576 C16.2652,11.4446 16.3222,11.7336 16.1802,12.0456 C15.9912,12.4386 15.7542,12.8266 15.4642,13.1806 C15.1862,13.5196 14.9162,13.5716 14.5242,13.4046 C14.3212,13.3146 14.1122,13.1986 13.8842,13.1426 C13.5592,13.0776 13.2682,13.1046 12.9572,13.2636 C12.6842,13.3876 12.4632,13.6156 12.1942,13.7516 C11.9422,13.9006 11.7382,13.8116 11.7002,13.5346 C11.6522,13.0436 11.8692,12.6316 12.2362,12.2766 C12.3282,12.1876 12.4322,12.0806 12.5562,12.0006 C12.6942,11.9036 12.7492,11.7796 12.7142,11.5996 C12.5412,10.7066 12.3662,9.7996 12.1952,8.9066 C12.0782,8.3016 11.9792,7.7076 11.8472,7.1066 C11.7992,6.8596 11.7532,6.6116 11.7022,6.3506 C11.5322,6.3556 11.3782,6.3706 11.3012,6.3706 C10.9622,6.3926 9.9112,6.4376 9.3582,6.9576 C9.1892,7.1316 8.9972,7.2686 8.7612,7.3286 C8.5222,7.3886 8.3472,7.2936 8.3052,7.0746 C8.2772,6.9226 8.2952,6.7776 8.3442,6.6246 C8.5602,6.0566 8.9372,5.5846 9.3842,5.1576 C9.7272,4.8336 10.0882,4.5226 10.5572,4.3756 C11.4342,4.0786 12.7172,4.1036 13.5352,4.1456 C14.1532,4.2836 15.1532,4.1346 15.1532,4.1346 C15.5062,4.0236 15.6732,3.9206 15.8972,3.6346 C16.0242,3.4826 16.3382,3.1656 16.5692,3.0786 C16.8322,2.9856 17.0632,3.0546 17.1592,3.3076" id="Fill-2" fill="#FAF8E1"></path>
                    <path d="M28.4492,9.4248 C28.7092,9.6288 28.7472,9.9068 28.6002,10.1948 C28.3902,10.5768 28.1472,10.9488 27.8372,11.2738 C27.5542,11.5798 27.2972,11.6148 26.9332,11.4398 C26.7342,11.3388 26.5332,11.2258 26.3222,11.1558 C26.0162,11.0568 25.7262,11.0818 25.4192,11.2088 C25.1422,11.3308 24.9232,11.5298 24.6612,11.6518 C24.4012,11.7848 24.2022,11.6858 24.1972,11.4178 C24.1632,10.9428 24.4042,10.5558 24.7602,10.2248 C24.8712,10.1388 24.9692,10.0558 25.0972,9.9818 C25.2392,9.8908 25.3002,9.7698 25.2782,9.6038 C25.1732,8.9538 25.0842,8.3018 24.9972,7.6638 L24.9952,7.6508 C24.9922,7.6228 24.9882,7.5948 24.9842,7.5678 C24.9652,7.4288 24.8712,7.2008 24.6152,7.2368 C24.1752,7.2958 23.5242,7.3998 22.7992,7.5128 C22.5912,7.5698 22.6002,7.7518 22.6082,7.8068 L22.6092,7.8208 C22.6892,8.4038 22.7662,8.9718 22.8452,9.5538 C22.8672,9.7068 22.9562,9.7938 23.1152,9.8278 C23.2922,9.8748 23.4832,9.9188 23.6202,10.0278 C23.8962,10.2308 23.9332,10.5078 23.7732,10.7978 C23.5772,11.1778 23.3192,11.5518 23.0242,11.8738 C22.7412,12.1818 22.4842,12.2168 22.1052,12.0428 C21.9072,11.9428 21.7202,11.8258 21.4952,11.7588 C21.1872,11.6588 20.9132,11.6828 20.6062,11.8098 C20.3152,11.9338 20.1082,12.1168 19.8342,12.2538 C19.5742,12.3888 19.3902,12.2858 19.3692,12.0208 C19.3502,11.5428 19.5752,11.1588 19.9472,10.8258 C20.0442,10.7418 20.1562,10.6558 20.2682,10.5838 C20.4272,10.4918 20.4722,10.3718 20.4472,10.1928 C20.3292,9.3188 20.2082,8.4308 20.0882,7.5588 C20.0092,6.9758 19.9282,6.3938 19.8462,5.7968 C19.7852,5.3398 19.7072,4.8838 19.6572,4.4098 C19.6282,4.1888 19.4792,4.1248 19.2452,4.2128 C19.1582,4.2528 19.0702,4.2928 18.9812,4.3188 C18.7612,4.4058 18.6162,4.3548 18.5692,4.1358 C18.5092,3.9038 18.5362,3.6598 18.6772,3.4428 C18.9402,2.9968 19.3252,2.6488 19.8692,2.4468 C21.4432,1.8778 21.9282,3.0558 22.1062,4.2448 C22.1982,4.8118 22.2742,5.3658 22.3512,5.9358 C22.3512,5.9358 22.3912,6.2268 22.6782,6.1878 C23.5752,6.0648 24.4252,5.9628 24.5002,5.9518 C24.7702,5.8878 24.7242,5.6678 24.7242,5.5548 C24.7092,5.4448 24.6922,5.3188 24.6782,5.2078 C24.5972,4.7378 24.5192,4.2828 24.4712,3.8098 C24.4562,3.5858 24.2932,3.5238 24.0732,3.6098 C23.9702,3.6528 23.8832,3.6928 23.7942,3.7188 C23.5752,3.8048 23.4442,3.7518 23.3842,3.5338 C23.3362,3.3008 23.3642,3.0568 23.4912,2.8568 C23.7692,2.4078 24.1372,2.0468 24.6982,1.8578 C25.1862,1.5928 25.7042,1.6498 26.1962,1.8648 C26.6242,2.0468 26.9852,1.9838 27.3382,1.7378 C27.4362,1.6668 27.5342,1.5978 27.6392,1.5698 C27.8472,1.5118 27.9812,1.5928 27.9952,1.8028 C28.0252,2.2508 27.8132,2.6178 27.4862,2.9458 C27.3792,3.0598 27.2682,3.1578 27.1262,3.2358 C26.9532,3.3288 26.8942,3.4638 26.9192,3.6448 C27.0442,4.4458 27.1712,5.2628 27.2812,6.0678 C27.3332,6.4558 27.3692,6.8318 27.4232,7.2208 C27.5032,7.8028 27.5952,8.3688 27.6752,8.9508 C27.6952,9.1038 27.7692,9.1928 27.9442,9.2388 C28.1202,9.2718 28.2952,9.3188 28.4492,9.4248" id="Fill-4" fill="#FAF8E1"></path>
                    <path d="M36.0664,10.3779 C35.8044,10.5409 35.5894,10.5459 35.3314,10.3859 C35.0204,10.1739 34.6704,10.0219 34.2704,10.0149 C33.8254,10.0109 33.3864,10.0909 32.9714,10.2529 C32.4814,10.4499 32.0624,10.7529 31.6094,11.0179 C31.3474,11.1799 31.1594,11.1269 31.0884,10.8519 C31.0264,10.6599 31.0414,10.4759 31.0254,10.2949 C30.9444,9.3609 30.8794,8.4399 30.7994,7.5059 C30.7394,6.9769 30.7224,6.4309 30.6754,5.8869 C30.6204,5.2449 30.5654,4.6179 30.5104,3.9779 C30.4884,3.7269 30.4814,3.4599 30.4444,3.2099 C30.3994,2.8629 30.3194,2.8279 29.9984,3.0239 C29.8084,3.1389 29.6374,3.2799 29.3934,3.3009 C29.1044,3.3399 28.9874,3.2239 29.0574,2.9649 C29.1384,2.6629 29.3004,2.4099 29.5094,2.1679 C29.7764,1.8629 30.0734,1.5709 30.4534,1.3699 C30.8934,1.1209 31.3624,1.0379 31.8524,1.0369 C32.0514,1.0339 32.2124,1.1189 32.3464,1.2479 C32.5114,1.3879 32.5264,1.3729 32.6814,1.2189 C32.8364,1.0509 33.0404,0.9209 33.2454,0.8049 C33.4794,0.6869 33.7094,0.6809 33.9244,0.8579 C34.1234,1.0239 34.3474,1.1449 34.6014,1.2339 C34.9674,1.3859 35.3434,1.2979 35.7004,1.1679 C35.8504,1.1269 35.9854,1.0869 36.1364,1.0599 C36.3484,1.0269 36.3994,1.0799 36.3544,1.2659 C36.2514,1.6819 36.0214,2.0389 35.6644,2.3369 C35.2604,2.6529 34.8334,2.8579 34.3174,2.9169 C33.9054,2.9529 33.5044,2.9319 33.1204,2.7389 C32.9434,2.6429 32.8704,2.6909 32.8714,2.8879 C32.8964,3.3489 32.9354,3.8099 32.9754,4.2699 C32.9754,4.4509 32.9914,4.6329 33.0054,4.8009 C33.0394,4.9939 33.0874,5.0179 33.2644,4.9459 C33.6344,4.7879 34.0064,4.6569 34.3994,4.5809 C34.6724,4.5429 34.9294,4.5069 35.1924,4.5269 C35.8404,4.5689 36.2834,4.8819 36.6004,5.3739 C36.7424,5.5859 36.6364,5.7779 36.5144,5.9719 C36.2834,6.3149 35.9874,6.6199 35.6244,6.8629 C35.3924,7.0089 35.2214,6.9959 35.0384,6.8149 C35.0024,6.7629 34.9534,6.7249 34.9194,6.6859 C34.7444,6.4339 34.4864,6.2869 34.1604,6.2449 C33.9094,6.1969 33.6484,6.1909 33.3894,6.2139 C33.1754,6.2319 33.1354,6.2919 33.1524,6.4869 C33.2094,7.1429 33.2644,7.7979 33.3234,8.4669 C33.3364,8.6059 33.4004,8.6429 33.5494,8.6019 C33.6404,8.5789 33.7004,8.5609 33.7734,8.5259 C34.5904,8.2169 35.4254,8.1029 36.2664,8.2539 C36.5634,8.3129 36.8614,8.3849 37.0924,8.5759 C37.2254,8.6909 37.2514,8.8149 37.2044,8.9739 C37.1594,9.1739 37.0534,9.3519 36.9284,9.5169 C36.7914,9.6969 36.6524,9.8779 36.5084,9.9879 C36.3374,10.1449 36.2274,10.2789 36.0664,10.3779" id="Fill-6" fill="#FAF8E1"></path>
                    <path d="M44.498,0.5215 C44.903,0.7485 45.269,0.7085 45.645,0.5155 C45.751,0.4565 45.841,0.3975 45.962,0.3805 C46.177,0.3465 46.286,0.4405 46.276,0.6515 C46.274,1.0995 46.025,1.4425 45.666,1.7335 C45.547,1.8215 45.411,1.9235 45.276,1.9835 C45.079,2.0595 45.021,2.1875 45.027,2.3695 C45.066,3.1805 45.091,4.0055 45.114,4.8175 C45.127,5.2085 45.138,5.5875 45.15,5.9795 C45.167,6.5675 45.185,7.1405 45.202,7.7285 C45.207,7.8815 45.285,7.9775 45.44,8.0295 C45.61,8.0945 45.796,8.1595 45.923,8.2815 C46.175,8.5115 46.183,8.7925 45.991,9.0635 C45.757,9.4205 45.462,9.7655 45.134,10.0555 C44.82,10.3315 44.56,10.3385 44.203,10.1255 C44.015,10.0035 43.843,9.8695 43.625,9.7785 C43.331,9.6465 43.055,9.6405 42.736,9.7345 C42.434,9.8275 42.209,10.0015 41.921,10.0945 C41.648,10.2005 41.477,10.0805 41.484,9.8135 C41.517,9.3355 41.78,8.9785 42.185,8.6865 C42.29,8.6135 42.41,8.5395 42.53,8.4805 C42.697,8.4055 42.755,8.2915 42.749,8.1235 C42.724,7.2275 42.696,6.3325 42.671,5.4505 C42.653,4.8625 42.636,4.2745 42.617,3.6865 C42.603,3.2105 42.574,2.7505 42.576,2.2735 C42.569,2.0495 42.429,1.9695 42.185,2.0335 C42.095,2.0645 42.005,2.0945 41.914,2.1105 C41.685,2.1735 41.545,2.1085 41.523,1.8845 C41.486,1.6475 41.54,1.4085 41.702,1.2075 C42.011,0.7915 42.431,0.4845 42.993,0.3565 C43.522,0.1445 44.03,0.2555 44.498,0.5215" id="Fill-8" fill="#FAF8E1"></path>
                    <g id="Group-12" transform="translate(47.000000, 0.000000)">
                        <mask id="mask-2" fill="white">
                            <use xlink:href="#path-1"></use>
                        </mask>
                        <g id="Clip-11"></g>
                        <path d="M3.0537,0.2275 C3.5127,0.2735 3.8767,0.6125 3.9647,1.0605 C4.0217,1.4545 4.0037,1.8315 3.9997,2.2235 C3.9897,3.5675 3.9627,4.9115 3.9517,6.2545 C3.9327,6.7315 3.9277,7.2065 3.9247,7.6835 C3.9237,7.7255 3.9387,7.7675 3.9387,7.8095 C3.9367,7.9215 3.9987,7.9505 4.1057,7.9365 C4.2897,7.8965 4.4577,7.8705 4.6267,7.8295 C5.4387,7.6395 6.2477,7.6325 7.0577,7.8915 C7.2407,7.9495 7.4227,8.0475 7.5747,8.1625 C7.7877,8.3175 7.8317,8.4435 7.7397,8.6665 C7.6157,8.9745 7.3827,9.2105 7.1517,9.4465 C6.9667,9.6265 6.7667,9.7795 6.5507,9.9315 C6.3517,10.0705 6.1377,10.0815 5.9087,9.9675 C5.8177,9.9255 5.7257,9.8685 5.6497,9.7975 C5.2247,9.4995 4.7517,9.3565 4.2157,9.3935 C3.8337,9.4185 3.4647,9.5275 3.0967,9.6505 C2.6987,9.7875 2.3607,10.0225 1.9607,10.1725 C1.6697,10.2825 1.5017,10.2105 1.4747,9.9305 C1.4477,9.5385 1.4807,9.1465 1.4687,8.7685 C1.4747,8.0545 1.4807,7.3405 1.4877,6.6265 C1.4927,5.7865 1.5157,4.9475 1.5367,4.1075 C1.5427,3.5045 1.5477,2.9035 1.5377,2.3005 C1.5397,1.9515 1.4647,1.9085 1.1117,2.0595 C1.0347,2.0865 0.9737,2.1275 0.8967,2.1555 C0.7277,2.2665 0.5437,2.2925 0.3447,2.2625 C0.1617,2.2475 0.1317,2.1905 0.1487,2.0085 C0.1967,1.7295 0.3977,1.5065 0.5827,1.2985 C0.9217,0.8955 1.3377,0.5905 1.8597,0.3845 C2.2427,0.2205 2.6407,0.1965 3.0537,0.2275" id="Fill-10" fill="#FAF8E1" mask="url(#mask-2)"></path>
                    </g>
                    <path d="M58.041,0.4082 C58.498,0.4732 58.847,0.8272 58.916,1.2792 C58.958,1.6742 58.924,2.0512 58.904,2.4422 C58.838,3.7852 58.755,5.1272 58.687,6.4702 C58.648,6.9442 58.624,7.4212 58.601,7.8952 C58.599,7.9372 58.611,7.9802 58.608,8.0222 C58.603,8.1352 58.664,8.1652 58.771,8.1562 C58.956,8.1242 59.125,8.1042 59.296,8.0702 C60.114,7.9162 60.926,7.9412 61.722,8.2332 C61.902,8.2992 62.081,8.4052 62.228,8.5252 C62.436,8.6892 62.473,8.8182 62.371,9.0382 C62.233,9.3392 61.993,9.5652 61.752,9.7912 C61.56,9.9642 61.354,10.1072 61.131,10.2512 C60.926,10.3822 60.711,10.3852 60.487,10.2622 C60.397,10.2152 60.309,10.1542 60.236,10.0812 C59.823,9.7652 59.356,9.6022 58.82,9.6172 C58.437,9.6272 58.065,9.7212 57.691,9.8282 C57.287,9.9482 56.939,10.1692 56.534,10.3032 C56.239,10.3992 56.074,10.3222 56.058,10.0412 C56.047,9.6482 56.098,9.2572 56.101,8.8792 C56.138,8.1662 56.173,7.4522 56.208,6.7392 C56.25,5.8992 56.308,5.0612 56.365,4.2232 C56.395,3.6222 56.426,3.0192 56.44,2.4182 C56.457,2.0682 56.383,2.0222 56.024,2.1592 C55.947,2.1822 55.883,2.2212 55.806,2.2462 C55.632,2.3492 55.447,2.3682 55.25,2.3302 C55.067,2.3072 55.04,2.2502 55.063,2.0692 C55.124,1.7912 55.334,1.5772 55.527,1.3772 C55.884,0.9872 56.312,0.7012 56.842,0.5162 C57.232,0.3682 57.631,0.3592 58.041,0.4082" id="Fill-13" fill="#FAF8E1"></path>
                    <path d="M68.7588,10.8857 C68.4718,10.9997 68.2598,10.9657 68.0328,10.7627 C67.7658,10.4977 67.4468,10.2857 67.0558,10.2067 C66.6168,10.1247 66.1718,10.1247 65.7338,10.2107 C65.2168,10.3177 64.7508,10.5407 64.2578,10.7207 C63.9698,10.8347 63.7938,10.7477 63.7748,10.4647 C63.7458,10.2657 63.7938,10.0867 63.8108,9.9057 C63.8968,8.9717 63.9988,8.0527 64.0848,7.1177 C64.1188,6.5867 64.1998,6.0457 64.2488,5.5017 C64.3098,4.8617 64.3678,4.2337 64.4268,3.5917 C64.4498,3.3407 64.4898,3.0767 64.4978,2.8247 C64.5158,2.4747 64.4438,2.4257 64.0928,2.5617 C63.8858,2.6417 63.6918,2.7487 63.4468,2.7277 C63.1558,2.7137 63.0618,2.5787 63.1758,2.3367 C63.3108,2.0537 63.5148,1.8327 63.7638,1.6317 C64.0798,1.3797 64.4238,1.1447 64.8358,1.0137 C65.3118,0.8467 65.7878,0.8487 66.2718,0.9367 C66.4678,0.9687 66.6118,1.0797 66.7208,1.2317 C66.8588,1.3987 66.8738,1.3867 67.0548,1.2617 C67.2378,1.1237 67.4598,1.0317 67.6828,0.9547 C67.9358,0.8797 68.1628,0.9157 68.3428,1.1287 C68.5088,1.3267 68.7078,1.4867 68.9428,1.6207 C69.2768,1.8337 69.6618,1.8137 70.0358,1.7497 C70.1918,1.7367 70.3318,1.7217 70.4848,1.7217 C70.6988,1.7287 70.7388,1.7877 70.6618,1.9637 C70.4878,2.3547 70.1958,2.6657 69.7918,2.8947 C69.3398,3.1337 68.8828,3.2607 68.3628,3.2267 C67.9518,3.1877 67.5618,3.0957 67.2168,2.8377 C67.0588,2.7107 66.9798,2.7457 66.9458,2.9397 C66.8878,3.3987 66.8458,3.8587 66.8028,4.3187 C66.7708,4.4977 66.7538,4.6797 66.7378,4.8477 C66.7348,5.0437 66.7788,5.0757 66.9668,5.0367 C67.3598,4.9477 67.7488,4.8847 68.1478,4.8797 C68.4228,4.8917 68.6848,4.9017 68.9388,4.9677 C69.5708,5.1237 69.9488,5.5117 70.1748,6.0527 C70.2768,6.2867 70.1378,6.4567 69.9838,6.6257 C69.6958,6.9227 69.3498,7.1707 68.9488,7.3457 C68.6938,7.4477 68.5288,7.4047 68.3788,7.1947 C68.3538,7.1357 68.3118,7.0887 68.2848,7.0447 C68.1568,6.7657 67.9298,6.5747 67.6158,6.4767 C67.3788,6.3837 67.1218,6.3317 66.8638,6.3077 C66.6508,6.2877 66.5998,6.3387 66.5808,6.5337 C66.5208,7.1897 66.4598,7.8457 66.3978,8.5147 C66.3848,8.6547 66.4428,8.7017 66.5968,8.6877 C66.6898,8.6827 66.7518,8.6737 66.8298,8.6537 C67.6898,8.4937 68.5308,8.5307 69.3328,8.8297 C69.6148,8.9407 69.8958,9.0657 70.0898,9.2937 C70.1988,9.4307 70.2028,9.5577 70.1278,9.7047 C70.0488,9.8947 69.9108,10.0507 69.7618,10.1917 C69.5928,10.3447 69.4248,10.4977 69.2638,10.5807 C69.0678,10.7037 68.9348,10.8177 68.7588,10.8857" id="Fill-15" fill="#FAF8E1"></path>
                    <path d="M78.4756,9.5439 C78.4106,9.9009 78.3576,10.2759 78.3046,10.5379 C78.2686,10.8009 77.8666,10.9149 77.6086,10.9919 C76.8056,11.2049 74.9676,11.7549 74.6076,11.9029 C74.1656,12.0819 73.5596,11.5589 73.5596,11.5589 C73.3936,11.4089 73.2306,11.2589 73.0296,11.1459 C72.7446,10.9799 72.4576,10.9249 72.1236,10.9909 C71.8256,11.0339 71.5726,11.1839 71.2696,11.2539 C70.9966,11.3149 70.8166,11.1769 70.8696,10.9149 C70.9526,10.4319 71.2606,10.1069 71.6946,9.8709 C71.6946,9.8709 73.2196,9.0099 75.0506,9.6179 C75.2096,9.6959 75.3836,9.7769 75.5026,9.9209 C75.5426,9.9689 75.5676,10.0149 75.5906,10.0609 L75.6446,10.0119 C75.7886,9.9759 75.8756,9.9019 75.9216,9.7959 C75.9416,9.6569 75.9626,9.5049 75.9826,9.3649 C76.0306,8.7929 74.9116,8.1849 74.4136,7.8889 C74.1036,7.7749 72.7096,6.8039 72.3826,6.4879 C71.6196,5.7739 71.6866,5.0769 71.6866,5.0769 C71.7266,4.7849 71.7486,4.6189 71.7676,4.4939 C71.8326,4.1359 71.8846,3.7619 71.9366,3.5009 C71.9716,3.2509 72.3756,3.1229 72.6346,3.0459 C73.4206,2.8299 75.2746,2.2819 75.6336,2.1359 C76.0756,1.9569 76.6826,2.4799 76.6826,2.4799 C76.8476,2.6289 77.0116,2.7789 77.2096,2.9059 C77.4966,3.0599 77.7836,3.1129 78.1156,3.0609 C78.4166,3.0039 78.6686,2.8559 78.9576,2.7819 C79.2446,2.7229 79.4116,2.8589 79.3716,3.1369 C79.2906,3.6069 78.9666,3.9289 78.5456,4.1809 C78.5456,4.1809 77.0216,5.0289 75.1916,4.4209 C75.0336,4.3419 74.8576,4.2609 74.7386,4.1169 C74.6996,4.0679 74.6756,4.0229 74.6516,3.9779 L74.5816,4.0239 C74.4386,4.0619 74.3666,4.1359 74.3196,4.2419 C74.3006,4.3809 74.2796,4.5329 74.2566,4.6869 C74.1956,5.1299 75.1326,5.7129 75.4696,5.9579 C75.7786,6.0709 77.5316,7.2339 77.8586,7.5489 C78.6236,8.2639 78.5566,8.9609 78.5566,8.9609 C78.5166,9.2519 78.4936,9.4189 78.4756,9.5439" id="Fill-17" fill="#FAF8E1"></path>
                    <path d="M89.6592,4.8203 C89.6652,5.0353 89.5152,5.2483 89.3602,5.4043 C88.8472,5.8903 88.2372,6.2293 87.5272,6.4353 C86.9672,6.5993 86.4202,6.6093 85.8802,6.5053 C85.7792,7.0283 85.6772,7.5643 85.5752,8.1003 C85.5142,8.4883 85.4252,8.8833 85.3512,9.2693 C85.2382,9.8613 85.1392,10.4553 85.0122,11.0443 C84.9792,11.2093 85.0372,11.3193 85.1912,11.4063 C85.3452,11.5073 85.5122,11.6103 85.6202,11.7733 C85.8152,12.0533 85.7612,12.3423 85.5132,12.5803 C85.1912,12.8753 84.8282,13.1473 84.4272,13.3703 C84.0442,13.5823 83.7732,13.5293 83.4722,13.2293 C83.3152,13.0713 83.1642,12.8853 82.9722,12.7493 C82.6962,12.5673 82.4152,12.4853 82.0662,12.5183 C81.7672,12.5323 81.4782,12.6623 81.1782,12.6893 C80.8882,12.7343 80.7312,12.5763 80.8002,12.3033 C80.9352,11.8313 81.2902,11.5273 81.7632,11.3343 C81.8822,11.2853 82.0162,11.2253 82.1622,11.1963 C82.3262,11.1563 82.4232,11.0603 82.4582,10.8823 C82.6282,9.9883 82.8022,9.0803 82.9722,8.1863 C83.0882,7.5813 83.2162,6.9923 83.3162,6.3843 C83.3642,6.1363 83.4112,5.8883 83.4612,5.6283 C83.3012,5.5683 83.1532,5.5263 83.0802,5.4983 C82.7582,5.3933 81.7642,5.0463 81.0582,5.3243 C80.8372,5.4243 80.6082,5.4793 80.3642,5.4473 C80.1212,5.4153 79.9952,5.2623 80.0372,5.0433 C80.0652,4.8903 80.1372,4.7623 80.2382,4.6383 C80.6512,4.1913 81.1762,3.8923 81.7502,3.6603 C82.1872,3.4873 82.6382,3.3313 83.1302,3.3683 C84.0552,3.4183 85.2372,3.9153 85.9822,4.2573 C86.5062,4.6143 87.4892,4.8453 87.4892,4.8453 C87.8582,4.8743 88.0522,4.8403 88.3672,4.6573 C88.5412,4.5623 88.9482,4.3833 89.1972,4.3883 C89.4752,4.3993 89.6632,4.5493 89.6592,4.8203" id="Fill-19" fill="#FAF8E1"></path>
                    <polygon id="Fill-21" fill="#FAF8E1" points="98.376 6.1025 95.565 16.9415 92.16 16.0605 92.54 14.5965 94.169 15.0185 96.22 7.1055 94.591 6.6845 94.97 5.2215"></polygon>
                </g>
            </g>
        </g>
    </g>
</svg>