<svg xmlns="http://www.w3.org/2000/svg" viewBox="0 0 106 36" fill="#FAF8E1">
    <path d="M89.38 0c.92 1.84 1.62 3.6 4 4 0 .63.13 1.32.14 2a5.7 5.7 0 001.76 4.32 8.62 8.62 0 002.25 1.46c1.53.67 3.13 1.2 4.69 1.81 3.27 1.28 4.15 3.89 3.68 6.76a19.08 19.08 0 01-14.7 15.26 11.14 11.14 0 01-7.61-.61 17.73 17.73 0 01-2.54-1.8 13.57 13.57 0 01-1-1c-.76.67-1.43 1.32-2.17 1.88A8.85 8.85 0 0173.24 36a4.92 4.92 0 01-4.08-1.52l-.37-.35h-.06c-6 3-11.36 1.7-16.25-2.3-1.34.81-2.62 1.7-4 2.42a14.57 14.57 0 01-9.57 1.59 12.82 12.82 0 01-7.84-4.59c-.28-.33-.54-.69-.83-1.06a17.45 17.45 0 01-8.95 4.73 13 13 0 01-8.63-.92 4.77 4.77 0 01-2.23-1.94 23.16 23.16 0 01-1.89-4.16 6.56 6.56 0 00-3.62-4.12 15.33 15.33 0 01-2.5-1.5 5.5 5.5 0 01-1.87-7 10.61 10.61 0 013-4.1 27.34 27.34 0 019.85-5.77c5.16-1.5 10.43-2.27 15.76-.73 1.34.38 2.61 1 4 1.55a18.76 18.76 0 015.88-2 22.08 22.08 0 0112.51 1.33 1.85 1.85 0 001.67 0 18.05 18.05 0 016-1.4 23.41 23.41 0 018.78.73 2.56 2.56 0 01.69.24 2.62 2.62 0 003-.08c1.28-.71 2.52-1.47 3.76-2.24.66-.41.78-.43 1.13.21A3.56 3.56 0 0079 4.76v1.88C82.84 5 86.66 3.49 89.38 0zM75.64 4.41h-.23a53 53 0 01-14.3 6.12.72.72 0 00-.64.79 21.72 21.72 0 00.18 3.23 6.54 6.54 0 003 4.6c.88.56 1.7 1.21 2.62 1.71a4.45 4.45 0 012.19 2.85 11.93 11.93 0 01.28 2.61c.06 1.24 0 2.51.11 3.74a7.88 7.88 0 00.86 2.57 3 3 0 003.4 1.45 6.13 6.13 0 001.67-.58 11.34 11.34 0 004.51-4.31c.18-.3.3-.64.49-1-.32 0-.49-.07-.66-.08a5.2 5.2 0 01-4.27-2.46 10.39 10.39 0 01-1.34-3.05c-.46-1.93-.72-3.92-1-5.88-.17-1-.35-2-.47-3 0-.37 0-.81.53-.87s.68.37.75.79c.28 1.94.52 3.89.84 5.82a19.49 19.49 0 001.49 5.26 4.37 4.37 0 007.24.92 7.24 7.24 0 001.31-2.28 10.91 10.91 0 00.52-3 21 21 0 00-1.35-7.76c-.16-.47-.46-.93 0-1.42 1 .14 1.24.86 1.47 1.56a20.82 20.82 0 011.11 8.7c-.29 2.75-1.44 5.08-4.26 6.31a1.31 1.31 0 00-.55.43c-.38.6-.72 1.22-1.08 1.84a8.93 8.93 0 008.87 4.13 14.14 14.14 0 006.79-2.59c4.39-3.1 6.62-7.55 8.15-12.37.68-2.16-.35-3.86-2.54-4.74a15.36 15.36 0 00-2.94-.79 12 12 0 01-4.82-1.93 11.08 11.08 0 01-4.41-7.79c-.06-.41-.14-.81-.22-1.28C84.48 5.89 84.33 6 79.16 8c-.58.22-1.13.51-1.75.8a19 19 0 00.18 2.07c.38 2 .82 4 1.23 6.06a1.88 1.88 0 01-.18 1.63 7.1 7.1 0 01-.74-1.19 8 8 0 01-.45-1.66c-.48-3-.94-6-1.41-9-.12-.82-.27-1.57-.4-2.3zM20 5.24a18.79 18.79 0 00-8.88 2.29 39.8 39.8 0 00-6 4.14 11.13 11.13 0 00-3.39 4.58A4.58 4.58 0 003.43 22a8.19 8.19 0 002.08 1.2A6 6 0 019.28 27a17.64 17.64 0 001.25 2.68A7.68 7.68 0 0019 33.59a14.2 14.2 0 008.75-5.08 20.91 20.91 0 004.95-13.84 8.15 8.15 0 00-4.44-7.37A16.51 16.51 0 0020 5.24zM50.94 7a23.64 23.64 0 00-3-1.49C42.65 3.69 38 5 33.66 8.25a1.08 1.08 0 00-.34 1.49 15.11 15.11 0 010 12c-.78 1.88-1.71 3.7-2.59 5.54-.18.37-.38.68-.15 1.13 1.83 3.7 5.28 6.79 10.72 6a13 13 0 007.94-4c.89-1 .86-1 .17-2.07-2.59-4.05-3.88-8.39-3-13.16A13.06 13.06 0 0150.94 7zm8.67 2.74a16.91 16.91 0 007.75-3.08A6.07 6.07 0 0064 5.1a15.66 15.66 0 00-11.55 2.29 11 11 0 00-5.21 8.23 16.44 16.44 0 005.49 14.7 14 14 0 0010.84 3.84 7.91 7.91 0 004.13-1.39 17 17 0 01-.43-2.12c-.11-1.58-.11-3.17-.2-4.76a5.41 5.41 0 00-2.9-4.84c-3.9-2.17-5.77-5.98-4.56-11.29z"/>
    <path d="M14 26.84a5.58 5.58 0 012.42-4.64 1.33 1.33 0 011.64-.1A3.1 3.1 0 0119.6 24a6.43 6.43 0 01-1.6 6.75c-1 1-1.68.95-2.65-.07A5.22 5.22 0 0114 26.84zm5.13-.6v-.39c0-.53-.12-1-.74-1.21s-1 .27-1.27.69a3.32 3.32 0 00-.23 3.2c.32.78.88.84 1.42.18a4 4 0 00.86-2.47zM11.88 16c-.36-1.29-.73-2.59-1.08-3.89a3.44 3.44 0 01-.27-1.26 1.35 1.35 0 01.65-.93c.48-.22.59.32.76.63l3.38 6.18c.06.12.21.24.2.35a5.38 5.38 0 01-.2.79c-.25-.06-.58-.05-.71-.2a14.55 14.55 0 01-1.06-1.39 1.55 1.55 0 00-.67-.56 7.51 7.51 0 000 .95c.14 1.07-.15 1.36-1.33 1.12.4.61 1.46 1 .56 2L7.3 16l.27-.86 4 1.1zM19.1 10.11a2.36 2.36 0 01-2.21 1.52 13.23 13.23 0 00-1.53.17l.38.6c.55.9.57.9 1.67.71a5.81 5.81 0 011.25-.11c.17 0 .33.18.5.28-.51.74-.68.85-2.16 1.38.06.78.61 1.62-.18 2.37-.12-.08-.26-.11-.28-.18a16.43 16.43 0 00-3.21-5.29 1.2 1.2 0 01-.06-1.56 21.84 21.84 0 002.93.29 21 21 0 002.8-.46zM42 25.57A6.16 6.16 0 0138.3 31a2.47 2.47 0 01-2.74-.72 4.35 4.35 0 01-1.12-3.38 5.75 5.75 0 012-4.1 3 3 0 015 1 10.09 10.09 0 01.56 1.77zm-3.67 4.07a3.71 3.71 0 002.37-4.26c-.08-.41-.09-.89-.66-1a1.34 1.34 0 00-1.41.43 4.31 4.31 0 00-1.23 3.42 1.52 1.52 0 00.89 1.41zM53.87 27.14a5.84 5.84 0 012.66-5 2.47 2.47 0 013.65.67 3.88 3.88 0 01.65 3.28 6.12 6.12 0 01-1.7 3.63 3.17 3.17 0 01-3.17.91A3 3 0 0154 28.18c-.06-.36-.08-.73-.13-1.04zm5.56-1.34a1.81 1.81 0 000-.7 2.38 2.38 0 00-.69-1c-.46-.3-.86.1-1.15.43a4.51 4.51 0 00-1.42 3.26c0 .56.07 1.14.66 1.38s1.08-.14 1.5-.49a3.59 3.59 0 001.1-2.88z"/>
</svg>
